<svg width="256" height="256" viewBox="0 0 256 256" xmlns="http://www.w3.org/2000/svg">
  <defs>
    <linearGradient id="stoneFill" x1="0" y1="0" x2="0" y2="256" gradientUnits="userSpaceOnUse">
      <stop offset="0" stop-color="#d8bd85"/>
      <stop offset="1" stop-color="#b3925c"/>
    </linearGradient>
  </defs>

  <!-- archway shape -->
  <path d="M20 246 L20 100 Q20 20 128 20 Q236 20 236 100 L236 246 L190 246 L190 104 Q190 60 128 60 Q66 60 66 104 L66 246 Z"
        fill="url(#stoneFill)" stroke="#7a6238" stroke-width="5" stroke-linejoin="round"/>

  <!-- block seams -->
  <line x1="20" y1="130" x2="66" y2="130" stroke="#7a6238" stroke-width="2" opacity="0.7"/>
  <line x1="190" y1="130" x2="236" y2="130" stroke="#7a6238" stroke-width="2" opacity="0.7"/>
  <line x1="20" y1="190" x2="66" y2="190" stroke="#7a6238" stroke-width="2" opacity="0.7"/>
  <line x1="190" y1="190" x2="236" y2="190" stroke="#7a6238" stroke-width="2" opacity="0.7"/>

  <!-- crack -->
  <path d="M100 60 L92 130 L104 200" fill="none" stroke="#7a6238" stroke-width="2" opacity="0.6"/>

  <!-- creeping desert vines -->
  <path d="M24 246 Q30 200 22 160 Q16 140 30 120" fill="none" stroke="#6a8a3a" stroke-width="4" stroke-linecap="round"/>
  <circle cx="30" cy="120" r="5" fill="#7fae4a"/>
  <circle cx="20" cy="165" r="4" fill="#7fae4a"/>
  <circle cx="26" cy="200" r="4" fill="#7fae4a"/>

  <path d="M228 246 Q222 190 232 150" fill="none" stroke="#6a8a3a" stroke-width="4" stroke-linecap="round"/>
  <circle cx="232" cy="150" r="4" fill="#7fae4a"/>
  <circle cx="226" cy="200" r="4" fill="#7fae4a"/>

  <!-- turquoise inlay -->
  <circle cx="128" cy="90" r="8" fill="#5fc9bd" opacity="0.8"/>
</svg>
